<svg width="84" height="84" viewBox="0 0 84 84" fill="none" xmlns="http://www.w3.org/2000/svg">
<g filter="url(#filter0_d_5_11474)">
<rect x="12" y="2" width="60" height="60" rx="15" fill="url(#paint0_linear_5_11474)"/>
</g>
<path d="M40.7497 18.6626L40.4521 14.9587C40.424 14.8797 40.3764 14.8089 40.3138 14.753C40.2513 14.697 40.1756 14.6577 40.0939 14.6385C40.0122 14.6193 39.927 14.621 39.8461 14.6433C39.7651 14.6655 39.6911 14.7078 39.6307 14.7661L36.0033 18.1644C34.8573 17.9215 33.6793 17.8685 32.5162 18.0075L32.4246 14.3564C32.4 14.2753 32.3554 14.2018 32.2948 14.1427C32.2342 14.0835 32.1596 14.0407 32.078 14.0181C31.9963 13.9956 31.9103 13.994 31.828 14.0137C31.7456 14.0333 31.6695 14.0734 31.6068 14.1303L28.6801 17.3738C26.6516 18.4616 25.025 20.1707 24.0388 22.2504C23.0525 24.3302 22.7585 26.6712 23.1998 28.9302C23.6412 31.1893 24.7946 33.2475 26.4911 34.8032C28.1876 36.3588 30.3378 37.33 32.6266 37.5744C34.9153 37.8188 37.2221 37.3235 39.2089 36.1612C41.1956 34.9989 42.7576 33.2306 43.666 31.1157C44.5744 29.0008 44.7814 26.6505 44.2565 24.4094C43.7317 22.1682 42.5027 20.1542 40.7496 18.6626H40.7497Z" fill="#62D9A3"/>
<path d="M42.0943 33.6933C46.0559 33.6303 51.04 47.5332 41.6517 47.6052C36.7938 47.6425 28.1938 48.5899 28.1938 48.5899C28.1938 48.5899 21.5085 38.5567 24.4901 32.3146L42.0943 33.6933Z" fill="#62D9A3"/>
<path d="M33.38 41.0402V48.2434H36.7477L39.4197 40.9088" fill="#62D9A3"/>
<path d="M36.7477 48.3749H33.38C33.3452 48.3749 33.3118 48.361 33.2872 48.3364C33.2625 48.3118 33.2487 48.2784 33.2487 48.2436V41.0403C33.2487 41.0055 33.2625 40.9721 33.2872 40.9475C33.3118 40.9229 33.3452 40.909 33.38 40.909C33.4148 40.909 33.4482 40.9229 33.4728 40.9475C33.4975 40.9721 33.5113 41.0055 33.5113 41.0403V48.1123H36.6558L39.2963 40.8641C39.3082 40.8314 39.3326 40.8047 39.3642 40.79C39.3958 40.7753 39.4319 40.7737 39.4646 40.7856C39.4973 40.7976 39.524 40.822 39.5387 40.8536C39.5534 40.8851 39.555 40.9212 39.543 40.954L36.8711 48.2885C36.8619 48.3138 36.8451 48.3357 36.823 48.3511C36.801 48.3666 36.7747 48.3749 36.7477 48.3749V48.3749Z" fill="white"/>
<path d="M42.1112 48.7209C43.634 48.7209 44.8685 48.3094 44.8685 47.8018C44.8685 47.2942 43.634 46.8827 42.1112 46.8827C40.5885 46.8827 39.354 47.2942 39.354 47.8018C39.354 48.3094 40.5885 48.7209 42.1112 48.7209Z" fill="#62D9A3"/>
<path d="M40.7326 47.0144C40.7046 47.0144 40.6772 47.0054 40.6546 46.9887C40.6321 46.972 40.6154 46.9485 40.6072 46.9217C40.5927 46.8746 39.1979 42.197 42.5023 40.7883C42.5182 40.7815 42.5352 40.7778 42.5525 40.7776C42.5698 40.7774 42.5869 40.7806 42.603 40.787C42.619 40.7934 42.6336 40.8029 42.646 40.815C42.6584 40.8271 42.6682 40.8415 42.675 40.8574C42.6818 40.8733 42.6853 40.8904 42.6855 40.9077C42.6856 40.9249 42.6824 40.9421 42.6759 40.9581C42.6694 40.9741 42.6599 40.9887 42.6477 41.001C42.6356 41.0133 42.6212 41.0231 42.6053 41.0298C39.5159 42.3469 40.8444 46.7997 40.8582 46.8445C40.8684 46.8778 40.865 46.9138 40.8487 46.9445C40.8324 46.9753 40.8045 46.9984 40.7713 47.0086C40.7587 47.0125 40.7457 47.0144 40.7326 47.0144V47.0144Z" fill="white"/>
<path d="M45.4098 45.8144C45.3913 45.7879 45.3778 45.76 45.3618 45.7328C45.2183 45.7381 45.0748 45.7434 44.9313 45.7487L45.4098 45.8144Z" fill="#3F3D56"/>
<path d="M59.7176 41.6523C58.6426 39.934 56.0122 39.4566 54.4019 40.6875C53.6752 41.2429 53.1855 42.0458 52.5647 42.7175C51.5203 43.8402 50.1275 44.5774 48.6118 44.8095C47.5567 44.9677 46.4407 44.8818 45.4663 45.3163C44.5214 45.7376 43.8085 46.9402 44.3229 47.8104C47.9498 47.6768 51.5767 47.5431 55.2035 47.4094C56.247 47.371 57.3275 47.3234 58.2605 46.8547C60.0717 45.9449 60.7927 43.3705 59.7176 41.6523Z" fill="#62D9A3"/>
<path d="M32.9419 36.6753C31.4522 36.6889 29.9757 36.3943 28.6053 35.8099C25.7441 34.5679 24.4327 32.472 24.3782 32.3834C24.3603 32.3537 24.3549 32.3182 24.363 32.2845C24.3712 32.2509 24.3924 32.2218 24.4219 32.2037C24.4514 32.1855 24.4869 32.1798 24.5206 32.1877C24.5543 32.1956 24.5836 32.2165 24.6019 32.2458C25.6385 33.718 27.0659 34.871 28.7231 35.5748C31.2997 36.6887 35.6996 37.2469 42.0285 33.5798C42.0434 33.5711 42.0599 33.5654 42.077 33.5631C42.0941 33.5607 42.1115 33.5618 42.1282 33.5662C42.1449 33.5706 42.1606 33.5783 42.1743 33.5888C42.1881 33.5993 42.1996 33.6124 42.2083 33.6273C42.2169 33.6423 42.2226 33.6588 42.2248 33.6759C42.2271 33.6931 42.226 33.7105 42.2215 33.7272C42.217 33.7438 42.2093 33.7595 42.1988 33.7732C42.1882 33.7869 42.1751 33.7984 42.1601 33.807C38.445 35.9597 35.3776 36.6753 32.9419 36.6753Z" fill="white"/>
<path d="M33.5113 30.0113C33.2676 30.011 33.034 29.9141 32.8617 29.7418C32.6894 29.5695 32.5925 29.3359 32.5922 29.0922C32.5922 29.0574 32.606 29.024 32.6307 28.9994C32.6553 28.9748 32.6887 28.9609 32.7235 28.9609C32.7583 28.9609 32.7917 28.9748 32.8164 28.9994C32.841 29.024 32.8548 29.0574 32.8548 29.0922C32.8548 29.2663 32.924 29.4333 33.0471 29.5564C33.1702 29.6796 33.3372 29.7487 33.5113 29.7487C33.6854 29.7487 33.8524 29.6796 33.9755 29.5564C34.0986 29.4333 34.1678 29.2663 34.1678 29.0922C34.1678 29.0574 34.1816 29.024 34.2062 28.9994C34.2309 28.9748 34.2643 28.9609 34.2991 28.9609C34.3339 28.9609 34.3673 28.9748 34.3919 28.9994C34.4165 29.024 34.4304 29.0574 34.4304 29.0922C34.4301 29.3359 34.3332 29.5695 34.1609 29.7418C33.9886 29.9141 33.755 30.011 33.5113 30.0113Z" fill="white"/>
<path d="M32.264 47.8243C32.2361 47.8242 32.209 47.8154 32.1865 47.7989C32.1641 47.7825 32.1474 47.7593 32.1389 47.7328L30.0382 41.1457C30.0329 41.1293 30.0309 41.112 30.0323 41.0947C30.0337 41.0775 30.0385 41.0607 30.0464 41.0454C30.0543 41.03 30.0651 41.0163 30.0783 41.0052C30.0915 40.994 30.1068 40.9856 30.1232 40.9803C30.1397 40.9751 30.157 40.9731 30.1743 40.9746C30.1915 40.9761 30.2082 40.9809 30.2236 40.9889C30.2389 40.9968 30.2525 41.0077 30.2636 41.021C30.2748 41.0342 30.2832 41.0495 30.2883 41.066L32.3891 47.653C32.3953 47.6727 32.3969 47.6936 32.3935 47.714C32.3902 47.7344 32.3821 47.7537 32.3699 47.7703C32.3578 47.787 32.3418 47.8006 32.3234 47.81C32.305 47.8193 32.2846 47.8242 32.264 47.8243V47.8243Z" fill="white"/>
<path d="M35.0212 49.6398C36.544 49.6398 37.7785 49.2283 37.7785 48.7207C37.7785 48.2131 36.544 47.8016 35.0212 47.8016C33.4984 47.8016 32.264 48.2131 32.264 48.7207C32.264 49.2283 33.4984 49.6398 35.0212 49.6398Z" fill="#62D9A3"/>
<path d="M30.5571 49.5088C32.0799 49.5088 33.3143 49.0973 33.3143 48.5897C33.3143 48.0821 32.0799 47.6707 30.5571 47.6707C29.0343 47.6707 27.7999 48.0821 27.7999 48.5897C27.7999 49.0973 29.0343 49.5088 30.5571 49.5088Z" fill="#62D9A3"/>
<path d="M33.577 27.855C34.1571 27.855 34.6274 27.6741 34.6274 27.451C34.6274 27.2279 34.1571 27.047 33.577 27.047C32.9969 27.047 32.5266 27.2279 32.5266 27.451C32.5266 27.6741 32.9969 27.855 33.577 27.855Z" fill="white"/>
<path d="M26.5143 27.4809C26.8148 27.1211 27.1908 26.8316 27.6155 26.633C28.0402 26.4344 28.5033 26.3314 28.9722 26.3314C29.441 26.3314 29.9042 26.4344 30.3289 26.633C30.7536 26.8316 31.1295 27.1211 31.4301 27.4809C31.9393 26.9948 32.2929 26.3686 32.4463 25.6815C32.5996 24.9944 32.5457 24.2772 32.2915 23.6207C32.0372 22.9642 31.594 22.3979 31.0179 21.9932C30.4418 21.5886 29.7586 21.364 29.0548 21.3476C28.3509 21.3313 27.6581 21.524 27.0638 21.9015C26.4695 22.2789 26.0005 22.8241 25.7161 23.4681C25.4316 24.1121 25.3446 24.826 25.4659 25.5195C25.5871 26.213 25.9114 26.8549 26.3975 27.3641C26.4355 27.404 26.4744 27.4429 26.5143 27.4809Z" fill="white"/>
<path d="M36.125 27.4809C36.4256 27.1211 36.8015 26.8316 37.2262 26.633C37.6509 26.4344 38.114 26.3314 38.5829 26.3314C39.0518 26.3314 39.5149 26.4344 39.9396 26.633C40.3643 26.8316 40.7402 27.1211 41.0408 27.4809C41.55 26.9948 41.9037 26.3686 42.057 25.6815C42.2103 24.9944 42.1564 24.2772 41.9022 23.6207C41.6479 22.9642 41.2047 22.3979 40.6286 21.9933C40.0525 21.5887 39.3693 21.364 38.6655 21.3476C37.9617 21.3313 37.2688 21.524 36.6745 21.9015C36.0802 22.2789 35.6112 22.8241 35.3268 23.4681C35.0424 24.1121 34.9553 24.826 35.0766 25.5195C35.1979 26.213 35.5221 26.8549 36.0082 27.3641C36.0462 27.404 36.0852 27.4429 36.125 27.4809Z" fill="white"/>
<path d="M27.4116 26.4766C28.0878 26.4766 28.636 25.9284 28.636 25.2522C28.636 24.5759 28.0878 24.0277 27.4116 24.0277C26.7353 24.0277 26.1871 24.5759 26.1871 25.2522C26.1871 25.9284 26.7353 26.4766 27.4116 26.4766Z" fill="#10343D"/>
<path d="M37.022 26.4766C37.6982 26.4766 38.2464 25.9284 38.2464 25.2522C38.2464 24.5759 37.6982 24.0277 37.022 24.0277C36.3457 24.0277 35.7975 24.5759 35.7975 25.2522C35.7975 25.9284 36.3457 26.4766 37.022 26.4766Z" fill="#10343D"/>
<path d="M38.6975 30.0717C39.2901 30.0717 39.7705 29.5913 39.7705 28.9987C39.7705 28.4062 39.2901 27.9258 38.6975 27.9258C38.1049 27.9258 37.6246 28.4062 37.6246 28.9987C37.6246 29.5913 38.1049 30.0717 38.6975 30.0717Z" fill="#DAFFF5"/>
<path d="M29.0014 30.0717C29.594 30.0717 30.0743 29.5913 30.0743 28.9987C30.0743 28.4062 29.594 27.9258 29.0014 27.9258C28.4088 27.9258 27.9284 28.4062 27.9284 28.9987C27.9284 29.5913 28.4088 30.0717 29.0014 30.0717Z" fill="#DAFFF5"/>
<defs>
<filter id="filter0_d_5_11474" x="0" y="0" width="84" height="84" filterUnits="userSpaceOnUse" color-interpolation-filters="sRGB">
<feFlood flood-opacity="0" result="BackgroundImageFix"/>
<feColorMatrix in="SourceAlpha" type="matrix" values="0 0 0 0 0 0 0 0 0 0 0 0 0 0 0 0 0 0 127 0" result="hardAlpha"/>
<feOffset dy="10"/>
<feGaussianBlur stdDeviation="6"/>
<feComposite in2="hardAlpha" operator="out"/>
<feColorMatrix type="matrix" values="0 0 0 0 0.384314 0 0 0 0 0.85098 0 0 0 0 0.639216 0 0 0 0.33 0"/>
<feBlend mode="normal" in2="BackgroundImageFix" result="effect1_dropShadow_5_11474"/>
<feBlend mode="normal" in="SourceGraphic" in2="effect1_dropShadow_5_11474" result="shape"/>
</filter>
<linearGradient id="paint0_linear_5_11474" x1="67" y1="9" x2="20" y2="55" gradientUnits="userSpaceOnUse">
<stop stop-color="#DAFFF5"/>
<stop offset="1" stop-color="#CDFDF0"/>
</linearGradient>
</defs>
</svg>
