<svg width="84" height="84" viewBox="0 0 84 84" fill="none" xmlns="http://www.w3.org/2000/svg">
<g filter="url(#filter0_d_5_11469)">
<rect x="12" y="2" width="60" height="60" rx="15" fill="url(#paint0_linear_5_11469)"/>
</g>
<path d="M57.4284 36.5344C57.4903 36.4452 57.5497 36.3528 57.6108 36.266C59.1649 33.9562 59.9966 31.2361 59.9998 28.4521C60.0255 20.4727 53.2932 14 44.9683 14C37.7073 14 31.65 18.9411 30.2309 25.5006C30.0181 26.4728 29.9103 27.465 29.9095 28.4601C29.9095 36.4476 36.383 43.0939 44.708 43.0939C46.0314 43.0939 47.8145 42.6961 48.7925 42.4277C49.7704 42.1593 50.7395 41.8049 50.9902 41.7093C51.2409 41.6137 51.6331 41.5157 51.9457 41.6057L58.1669 43.404C58.2216 43.4202 58.2796 43.4215 58.3349 43.4078C58.3903 43.3942 58.4411 43.366 58.482 43.3263C58.5229 43.2865 58.5524 43.2366 58.5677 43.1816C58.5829 43.1267 58.5832 43.0686 58.5686 43.0135L57.1447 37.5903C57.0459 37.1885 57.033 37.1129 57.4284 36.5344V36.5344Z" fill="#62D9A3"/>
<path d="M46.5433 44.8071C45.9249 44.906 45.3003 44.961 44.6742 44.9718C41.2647 44.9718 38.0448 44.0718 35.4332 42.3843C33.7626 41.359 32.3125 40.0118 31.1671 38.4212C29.0714 35.6432 27.9287 32.1124 27.9287 28.4176C27.9287 28.1661 27.9376 27.9242 27.9464 27.6815C27.9496 27.6099 27.9306 27.5391 27.8922 27.4787C27.8537 27.4183 27.7975 27.3712 27.7313 27.3438C27.6651 27.3164 27.5921 27.31 27.5222 27.3256C27.4523 27.3412 27.3888 27.3779 27.3405 27.4308C25.4164 29.5361 24.2533 32.2253 24.0368 35.0692C23.8204 37.913 24.5631 40.7474 26.1464 43.1196C26.3449 43.4225 26.4574 43.6564 26.4228 43.8123L25.2906 49.6188C25.2802 49.674 25.2844 49.731 25.3028 49.7841C25.3213 49.8372 25.3533 49.8845 25.3958 49.9213C25.4382 49.9582 25.4896 49.9832 25.5447 49.994C25.5999 50.0048 25.6569 50.001 25.7101 49.9828L31.1743 48.035C31.34 47.9695 31.517 47.9373 31.6952 47.9404C31.8733 47.9434 32.0491 47.9816 32.2125 48.0527C33.8478 48.6955 35.6566 49.0909 37.4654 49.0909C40.9471 49.1023 44.3009 47.7795 46.8374 45.3945C46.8898 45.3434 46.9245 45.2771 46.9367 45.2049C46.9489 45.1328 46.9378 45.0587 46.905 44.9933C46.8723 44.9279 46.8196 44.8746 46.7546 44.8411C46.6895 44.8077 46.6155 44.7957 46.5433 44.8071V44.8071Z" fill="#62D9A3"/>
<defs>
<filter id="filter0_d_5_11469" x="0" y="0" width="84" height="84" filterUnits="userSpaceOnUse" color-interpolation-filters="sRGB">
<feFlood flood-opacity="0" result="BackgroundImageFix"/>
<feColorMatrix in="SourceAlpha" type="matrix" values="0 0 0 0 0 0 0 0 0 0 0 0 0 0 0 0 0 0 127 0" result="hardAlpha"/>
<feOffset dy="10"/>
<feGaussianBlur stdDeviation="6"/>
<feComposite in2="hardAlpha" operator="out"/>
<feColorMatrix type="matrix" values="0 0 0 0 0.384314 0 0 0 0 0.85098 0 0 0 0 0.639216 0 0 0 0.33 0"/>
<feBlend mode="normal" in2="BackgroundImageFix" result="effect1_dropShadow_5_11469"/>
<feBlend mode="normal" in="SourceGraphic" in2="effect1_dropShadow_5_11469" result="shape"/>
</filter>
<linearGradient id="paint0_linear_5_11469" x1="67" y1="9" x2="20" y2="55" gradientUnits="userSpaceOnUse">
<stop stop-color="#DAFFF5"/>
<stop offset="1" stop-color="#CDFDF0"/>
</linearGradient>
</defs>
</svg>
