<svg width="576" height="366" viewBox="0 0 576 366" fill="none" xmlns="http://www.w3.org/2000/svg">
<path d="M95.894 264.906L95.391 265.485L122.952 289.438L123.455 288.859L95.894 264.906Z" fill="black"/>
<path d="M138.649 98.9333C138.919 125.583 111.212 128.194 111.212 128.194C111.212 128.194 105.078 130.826 96.3323 134.225C80.5205 140.359 56.15 148.959 44.1098 148.876C40.5454 148.856 38.0586 148.089 37.1883 146.244C31.7588 134.826 53.7461 116.009 62.8022 68.3665C71.8582 20.7446 112.766 40.1622 112.766 40.1622C128.557 32.9298 138.4 72.2625 138.649 98.9333Z" fill="#28676D"/>
<path d="M118.423 112.694C110.942 113.025 102.135 124.92 96.3323 134.225C80.5204 140.359 56.1499 148.959 44.1097 148.876C50.2024 141.602 64.2527 123.677 65.6412 111.533C67.4234 95.9699 88.5403 37.862 112.869 52.8863C112.869 52.8863 115.729 50.068 118.693 50.441C121.677 50.7933 126.547 52.4304 127.5 63.2687C128.453 74.1069 130.608 84.9452 131.707 87.6599C132.784 90.3539 130.754 112.155 118.423 112.694Z" fill="#1B585F"/>
<path d="M152.078 284.386C148.659 271.434 148.286 244.783 148.659 226.609C149.032 208.435 147.954 181.619 145.053 166.139C142.172 150.659 124.889 136.069 120.599 134.225C116.31 132.36 105.927 121.024 105.927 121.024L107.15 143.385C107.958 143.157 108.746 142.846 109.471 142.411L109.906 170.76L108 170.387L92.6022 141.976C92.6851 141.996 93.4311 142.286 94.6124 142.639L82.3442 120.486C82.3442 120.486 70.6149 127.034 69.1228 128.319C67.6515 129.604 68.7291 131.158 68.7291 131.158C53.1659 132.091 36.8775 148.752 24.2778 169.869C11.6781 190.986 1.12993 232.681 0.0108763 258.046C-1.10818 283.432 84.4994 313.626 84.4994 313.626C81.7225 302.705 91.8976 299.741 91.8976 299.741L99.8553 322.724H160.865C160.885 322.724 155.497 297.338 152.078 284.386ZM49.8917 256.948C44.7938 249.052 32.8779 246.773 32.8779 246.773L45.2497 217.885C55.6113 239.499 49.8917 256.948 49.8917 256.948Z" fill="white"/>
<path d="M141.84 292.82L78.2202 365.04L26.7023 320.962L28.1943 319.284L91.9183 247.892L140.452 291.577L141.84 292.82Z" fill="#2BC1C5"/>
<path d="M141.841 292.82L78.2203 365.04L26.7024 320.962L28.1945 319.283L78.0545 361.206L140.452 291.576L141.841 292.82Z" fill="#11829A"/>
<path d="M84.914 314.206C84.914 314.206 44.5866 298.871 40.6699 294.934C36.7532 291.017 63.3618 271.185 63.3618 271.185" fill="white"/>
<path d="M61.7246 269.361L91.5039 299.348C91.5039 299.348 82.4064 300.757 84.7274 312.714C87.0484 324.671 84.7274 312.714 84.7274 312.714C84.7274 312.714 48.3996 300.757 40.6491 294.934C32.9193 289.11 61.7246 269.361 61.7246 269.361Z" fill="white"/>
<path d="M84.7277 312.735C84.7277 312.735 90.3644 321.397 97.7419 322.723C105.119 324.07 105.928 333.914 104.954 336.649C104.954 336.649 105.741 337.085 107.15 335.157C107.15 335.157 107.668 338.142 109.782 334.888C109.782 334.888 110.652 336.028 111.709 333.209C112.766 330.391 112.58 325.998 112.58 325.998C112.58 325.998 114.341 326.516 114.776 328.464C115.212 330.391 115.212 332.588 116.351 333.479C117.491 334.349 116.973 325.397 116.973 325.397L91.4834 299.368C91.5042 299.368 81.9093 299.886 84.7277 312.735Z" fill="#FEB7C5"/>
<path d="M109.388 171.713L86.7373 156.751V148.13L81.5772 154.741L68.1072 131.552C67.8999 131.179 68.0243 130.723 68.3765 130.516C68.7496 130.308 69.2055 130.433 69.4127 130.785L81.7638 152.047L88.2708 143.737V155.964L108.725 169.475L115.605 153.228L110.403 145.519H117.366L114.071 130.08C113.988 129.666 114.237 129.272 114.651 129.189C115.066 129.106 115.46 129.355 115.543 129.769L119.211 147.032H113.222L117.283 153.062L109.388 171.713Z" fill="#79A1BC"/>
<path d="M118.299 265.942C117.905 265.942 117.574 265.631 117.532 265.216C117.449 263.89 115.709 232.432 117.553 224.682C119.542 216.289 120.91 207.647 115.895 194.343C110.652 180.479 108.331 170.843 108.29 170.739C108.186 170.325 108.435 169.931 108.849 169.827C109.264 169.724 109.657 169.973 109.761 170.387C109.782 170.491 112.082 180.023 117.304 193.804C122.485 207.502 121.076 216.393 119.024 225.013C117.242 232.557 119.024 264.802 119.045 265.113C119.066 265.527 118.755 265.9 118.32 265.921C118.34 265.942 118.32 265.942 118.299 265.942Z" fill="#79A1BC"/>
<path d="M139.872 322.889C139.457 322.889 139.126 322.558 139.105 322.143C139.105 321.48 138.359 256.223 138.732 242.11L138.753 241.468C139.022 231.23 139.022 231.23 140.846 225.511C141.426 223.708 142.214 221.242 143.25 217.677C146.876 205.223 142.587 198.923 138.442 192.809C137.799 191.856 137.178 190.944 136.598 190.012C132.142 182.924 136.349 171.61 136.535 171.133C136.68 170.739 137.116 170.553 137.509 170.698C137.903 170.843 138.09 171.278 137.945 171.672C137.903 171.775 133.821 182.759 137.882 189.183C138.463 190.095 139.064 190.986 139.706 191.918C143.851 198.011 148.555 204.933 144.721 218.071C143.664 221.677 142.877 224.143 142.296 225.946C140.535 231.438 140.535 231.438 140.266 241.468L140.245 242.11C139.872 256.181 140.618 321.418 140.618 322.081C140.639 322.537 140.307 322.889 139.872 322.889C139.872 322.889 139.893 322.889 139.872 322.889Z" fill="#79A1BC"/>
<path d="M91.9184 300.508C91.7319 300.508 91.5247 300.425 91.3796 300.28L50.0161 258.917C49.7259 258.626 49.7259 258.129 50.0161 257.839C50.3062 257.549 50.8035 257.549 51.0937 257.839L92.4572 299.203C92.7473 299.493 92.7473 299.99 92.4572 300.28C92.2914 300.425 92.1049 300.508 91.9184 300.508Z" fill="#79A1BC"/>
<path d="M45.2496 218.651C45.146 218.651 45.0424 218.631 44.9595 218.589C44.5657 218.423 44.3999 217.988 44.5657 217.595L60.9578 178.821C61.1236 178.428 61.5588 178.262 61.9525 178.428C62.3462 178.593 62.512 179.029 62.3462 179.422L45.9542 218.196C45.8298 218.465 45.5397 218.651 45.2496 218.651Z" fill="#79A1BC"/>
<path d="M97.5551 181.764L82.3857 181.868L81.6812 177.744L96.8298 177.619L97.5551 181.764Z" fill="#4C90D1"/>
<path d="M126.837 100.881C123.832 116.527 106.052 113.709 105.243 113.564H105.223L105.927 121.004L106.611 128.091L108.455 167.631L82.3442 120.465C85.4112 93.9184 79.5051 85.6291 79.5051 85.6291C72.1069 85.3183 67.154 74.7909 71.5681 70.9157C75.9821 67.0611 81.3495 74.5008 81.3495 74.5008C81.3495 74.5008 91.0479 65.196 98.3425 56.6995C105.616 48.203 113.574 54.9381 113.574 54.9381C124.35 45.6955 126.029 71.1643 126.029 71.1643C126.029 71.1643 129.925 84.8624 126.837 100.881Z" fill="#FEB7C5"/>
<path d="M105.927 121.004C105.927 121.004 88.1468 114.393 87.5044 99.6379C87.5044 99.6379 91.4004 109.399 105.223 113.585L105.927 121.004Z" fill="#F59DAB"/>
<path d="M109.243 168.999L107.544 168.709L92.1465 141.955C92.2294 141.976 93.4313 142.266 94.6126 142.618L108.456 167.631L107.316 143.26C108.124 143.032 108.725 142.784 109.45 142.369L109.243 168.999Z" fill="white"/>
<path d="M108.476 167.651L94.6331 142.639C97.4721 143.467 102.943 144.545 107.336 143.302L108.476 167.651Z" fill="#1994B5"/>
<path d="M105.43 85.8778C106.483 85.8778 107.337 84.9128 107.337 83.7225C107.337 82.5322 106.483 81.5673 105.43 81.5673C104.377 81.5673 103.523 82.5322 103.523 83.7225C103.523 84.9128 104.377 85.8778 105.43 85.8778Z" fill="#070455"/>
<path d="M122.402 84.4271C123.261 84.4271 123.956 83.4622 123.956 82.2719C123.956 81.0816 123.261 80.1167 122.402 80.1167C121.544 80.1167 120.848 81.0816 120.848 82.2719C120.848 83.4622 121.544 84.4271 122.402 84.4271Z" fill="#070455"/>
<path d="M100.746 73.796C100.581 73.796 100.415 73.7339 100.27 73.6303C99.9383 73.3609 99.8761 72.8842 100.146 72.5734C100.228 72.4698 102.239 69.9623 105.243 69.755C107.046 69.6514 108.787 70.3974 110.424 71.9724C110.714 72.2625 110.735 72.7392 110.445 73.05C110.155 73.3401 109.678 73.3609 109.367 73.0707C108.062 71.7859 106.715 71.1849 105.347 71.2678C103.026 71.4129 101.368 73.4852 101.347 73.5059C101.202 73.7132 100.974 73.796 100.746 73.796Z" fill="black"/>
<path d="M118.423 73.8169C118.299 73.8169 118.196 73.7962 118.071 73.734C117.698 73.5475 117.553 73.0916 117.74 72.7186C117.802 72.5735 119.543 69.2163 122.34 68.8226C123.812 68.6154 125.241 69.2371 126.588 70.6877C126.879 70.9985 126.858 71.4752 126.547 71.7653C126.236 72.0554 125.759 72.0347 125.469 71.7239C124.475 70.667 123.501 70.1903 122.547 70.3147C120.537 70.6048 119.107 73.361 119.087 73.3817C118.962 73.6511 118.693 73.8169 118.423 73.8169Z" fill="black"/>
<path d="M114.817 94.8923C114.527 94.8923 114.299 94.6851 114.258 94.395C114.216 94.0841 114.444 93.794 114.755 93.7525C115.916 93.6075 119.48 93.1308 119.977 91.6802C120.288 90.7891 119.356 89.6079 118.548 88.7582C113.947 84.0541 115.771 77.5884 115.833 77.319C115.916 77.0082 116.227 76.8424 116.537 76.9253C116.848 77.0082 117.014 77.319 116.931 77.6299C116.91 77.692 115.232 83.7432 119.356 87.9708C120.91 89.5457 121.449 90.8927 121.055 92.0532C120.413 93.9183 117.428 94.5607 114.921 94.8923C114.879 94.8716 114.859 94.8923 114.817 94.8923Z" fill="#F59DAB"/>
<path d="M114.113 98.5191C108.455 98.4155 105.326 97.6902 105.326 97.6902C105.326 97.6902 108.766 104.052 114.113 103.555C119.459 103.037 120.599 98.3119 120.599 98.3119L114.113 98.5191Z" fill="white"/>
<path d="M103.15 91.0794C103.067 91.0794 102.984 91.0794 102.901 91.0794C93.1408 90.9343 90.2603 81.7332 90.2395 81.6296L90.1774 81.4224L90.2603 81.2359C90.3017 81.1323 91.3793 78.7491 95.4825 78.5211C99.2956 78.3139 108.352 78.4175 109.533 78.5211C110.942 78.6455 113.636 79.7024 113.532 81.5882C113.491 82.1891 113.532 82.5829 113.553 82.9559C113.595 83.4533 113.636 83.9506 113.532 84.8003C113.304 86.5203 110.424 91.0794 103.15 91.0794ZM102.922 89.9396C110.113 90.0432 112.289 85.5256 112.393 84.6759C112.496 83.9506 112.455 83.5362 112.413 83.0802C112.372 82.6865 112.351 82.2306 112.393 81.5467C112.455 80.6349 110.486 79.7852 109.429 79.6816C108.269 79.578 99.3163 79.4744 95.5447 79.6816C92.7678 79.8267 91.7109 81.0701 91.4 81.526C91.8767 82.8937 94.7158 89.8153 102.922 89.9396Z" fill="#070455"/>
<path d="M124.557 89.6495C122.464 89.6495 120.599 88.6547 119.149 86.7482C117.47 84.5308 116.683 81.4016 117.18 80.2826C117.284 79.9095 117.76 78.376 119.46 77.8372C120.661 77.4642 131.292 75.8685 132.391 76.3659C133.489 76.8632 133.759 78.8527 133.468 79.951C133.448 80.0546 133.427 80.2204 133.386 80.4483C133.116 82.3342 132.266 88.0538 126.174 89.4629C125.614 89.5873 125.076 89.6495 124.557 89.6495ZM131.603 77.3813C129.738 77.3813 121.283 78.4589 119.791 78.9355C118.548 79.3293 118.278 80.552 118.278 80.5934L118.216 80.7592C117.988 81.1944 118.382 83.8884 120.061 86.0851C121.138 87.4942 123.024 89.0278 125.884 88.3646C131.23 87.1212 131.956 82.1476 132.225 80.2826C132.266 79.9924 132.308 79.7852 132.329 79.6609C132.557 78.8527 132.246 77.5678 131.893 77.402C131.852 77.402 131.748 77.3813 131.603 77.3813Z" fill="#070455"/>
<path d="M117.698 81.1941H112.952V81.9608H117.698V81.1941Z" fill="black"/>
<path d="M80.9003 72.2148L80.1569 73.0788L90.4143 81.9059L91.1578 81.0419L80.9003 72.2148Z" fill="#070455"/>
<path d="M422.847 19.4183C417.729 21.1176 419.614 26.4435 419.614 26.4435C419.614 26.4435 412.423 25.0136 410.621 27.7076C408.818 30.4016 410.621 36.1627 410.621 36.1627C410.621 36.1627 406.6 35.4996 406.476 37.8413C406.372 40.183 409.812 42.6283 408.921 45.198C408.03 47.7677 405.233 47.3118 406.476 51.3114C407.699 55.311 409.377 61.673 409.377 61.673L459.61 69.4856C459.61 69.4856 465.268 59.7665 465.724 57.0932C466.076 54.9379 464.832 50.9798 464.501 49.4048C464.169 47.8299 463.713 46.5036 465.724 44.3898C467.734 42.2761 465.62 39.2712 463.61 37.8206C461.6 36.3699 461.392 34.9193 462.615 32.7019C463.838 30.4845 461.62 26.7958 458.263 26.6922C454.927 26.5886 458.367 21.014 455.922 19.895C453.476 18.7759 446.783 20.6825 446.783 20.6825C446.783 20.6825 442.99 14.7763 438.327 15.4602C433.644 16.1233 430.639 21.5736 430.639 21.5736C430.639 21.5736 427.987 17.719 422.847 19.4183Z" fill="#0A0134"/>
<path d="M458.118 109.875L461.683 114.207L445.871 129.915L415.159 135.696L417.149 120.9L422.267 113.543C422.267 113.543 422.537 112.714 422.889 111.471C423.552 109.088 424.526 105.213 424.36 102.85C424.36 102.85 400.653 102.415 403.43 81.8161C406.227 61.2172 408.901 61.4452 409.999 52.4306C411.118 43.416 411.885 37.2819 411.885 37.2819C411.885 37.2819 432.815 45.0739 445.726 38.2766C445.726 38.2766 454.989 44.2864 450.057 54.42C449.166 58.316 455.404 55.9743 455.404 55.9743C455.404 55.9743 454.409 64.7609 452.834 66.4395C451.28 68.1181 454.616 67.3306 456.274 63.4346C457.932 59.5387 461.517 58.1917 464.853 59.7666C468.19 61.3209 463.071 74.4594 455.942 74.1278C456.005 74.1278 453.228 103.182 458.118 109.875Z" fill="#B76B78"/>
<path d="M453.788 80.0546C453.663 80.8835 449.394 107.658 423.262 111.471C423.925 109.088 424.899 105.213 424.734 102.85C424.734 102.85 445.084 104.176 453.788 80.0546Z" fill="#A4465F"/>
<path d="M421.335 116.196C421.335 116.196 415.822 131.241 421.335 131.572C426.847 131.904 452.937 122.869 459.3 113.17C459.3 113.17 458.035 108.404 456.854 108.072C455.694 107.741 511.149 121.874 549.611 174.552C549.611 174.552 549.611 178.407 547.435 180.231C545.259 182.075 503.108 212.352 503.108 212.352C503.108 212.352 501.596 260.678 501.761 267.206C501.927 273.734 501.761 323.407 501.761 323.407H379.184C379.184 323.407 380.862 271.392 380.531 259.02C380.199 246.648 380.199 197.949 380.199 197.949L342.897 180.086C342.897 180.086 341.384 179.588 346.399 174.055C351.414 168.543 371.309 144.628 375.495 140.276C379.681 135.924 401.668 117.149 423.241 111.471L421.335 116.196Z" fill="#28676D"/>
<path d="M378.624 265.9C376.324 267.62 379.101 270.004 379.101 270.004C379.101 270.004 374.894 271.123 376.013 275.143C376.013 275.143 373.858 277.754 375.267 281.215C375.267 281.215 373.008 284.489 374.79 286.624C376.572 288.779 378.147 292.592 387.867 292.592C387.867 292.592 391.224 292.405 391.887 289.877C391.887 289.877 394.311 286.23 392.633 283.909C390.954 281.567 382.831 274.956 382.831 274.956L392.467 279.723C393.503 280.241 394.747 279.743 395.161 278.666C395.472 277.837 395.203 276.925 394.498 276.386L382.624 267.475C382.644 267.475 380.489 264.491 378.624 265.9Z" fill="#B56975"/>
<path d="M543.581 175.215C543.581 175.215 546.876 173.951 549.611 174.552C549.611 174.552 549.176 179.111 547.435 180.23L543.581 175.215Z" fill="#1A687F"/>
<path d="M378.437 288.136C378.437 288.136 338.359 275.06 332.701 258.606C328.412 246.151 337.675 206.445 342.42 187.877C343.933 181.93 345.011 178.137 345.011 178.137L382.292 192.022L382.209 196.705L382.085 203.855C382.085 203.855 378.002 223.148 374.127 232.391C374.127 232.391 371.578 261.88 379.101 270.003C386.623 278.148 378.437 288.136 378.437 288.136Z" fill="#B66A76"/>
<path d="M382.272 192.022L382.189 196.705C370.584 193.783 353.466 190.157 342.421 187.877C343.934 181.93 345.011 178.137 345.011 178.137L382.272 192.022Z" fill="#A44761"/>
<path d="M391.742 289.007C387.245 287.307 378.541 278.852 378.168 278.479L378.707 277.941C378.79 278.023 387.66 286.644 392.012 288.302L391.742 289.007Z" fill="#A4465F"/>
<path d="M389.98 292.364C383.805 291.203 377.588 284.821 377.339 284.551L377.878 284.033C377.94 284.095 384.178 290.519 390.125 291.638L389.98 292.364Z" fill="#A4465F"/>
<path d="M382.313 189.328C382.002 189.328 381.753 189.079 381.753 188.768C381.733 188.209 381.733 187.67 381.733 187.111C381.733 186.385 381.753 185.66 381.774 184.935C381.795 184.624 382.002 184.375 382.354 184.375C382.665 184.396 382.914 184.645 382.914 184.955C382.893 185.66 382.872 186.385 382.872 187.09C382.872 187.629 382.872 188.167 382.893 188.706C382.872 189.059 382.624 189.307 382.313 189.328ZM382.562 181.723C382.541 181.723 382.52 181.723 382.499 181.723C382.189 181.702 381.961 181.412 381.981 181.101C382.085 179.857 382.251 178.573 382.417 177.288C382.458 176.977 382.748 176.749 383.059 176.811C383.37 176.853 383.577 177.143 383.536 177.454C383.349 178.718 383.204 179.961 383.1 181.204C383.1 181.495 382.852 181.723 382.562 181.723ZM383.618 174.2C383.577 174.2 383.556 174.2 383.515 174.2C383.204 174.138 382.997 173.848 383.059 173.537C383.287 172.293 383.556 171.05 383.846 169.807C383.909 169.496 384.219 169.309 384.53 169.371C384.841 169.434 385.028 169.745 384.965 170.055C384.675 171.278 384.427 172.521 384.178 173.744C384.116 174.013 383.888 174.2 383.618 174.2ZM385.318 166.802C385.276 166.802 385.214 166.802 385.173 166.781C384.862 166.698 384.696 166.387 384.779 166.076C385.111 164.875 385.463 163.631 385.857 162.408C385.96 162.118 386.271 161.932 386.561 162.035C386.851 162.118 387.038 162.45 386.934 162.74C386.561 163.942 386.209 165.165 385.877 166.367C385.815 166.636 385.587 166.802 385.318 166.802ZM387.577 159.549C387.514 159.549 387.452 159.528 387.39 159.507C387.1 159.404 386.934 159.072 387.038 158.782C387.452 157.601 387.887 156.378 388.343 155.197C388.447 154.907 388.779 154.762 389.069 154.865C389.359 154.969 389.504 155.3 389.4 155.591C388.944 156.772 388.509 157.974 388.115 159.155C388.033 159.404 387.805 159.549 387.577 159.549ZM390.271 152.441C390.188 152.441 390.126 152.42 390.043 152.399C389.753 152.275 389.607 151.943 389.732 151.653C390.229 150.472 390.727 149.291 391.245 148.151C391.369 147.861 391.701 147.736 391.991 147.861C392.281 147.985 392.405 148.317 392.281 148.607C391.783 149.747 391.286 150.907 390.789 152.088C390.706 152.316 390.499 152.441 390.271 152.441ZM393.358 145.498C393.276 145.498 393.193 145.478 393.11 145.436C392.82 145.312 392.695 144.96 392.84 144.669C393.4 143.488 393.959 142.348 394.519 141.25C394.664 140.96 394.996 140.856 395.286 141.001C395.576 141.146 395.679 141.478 395.534 141.768C394.975 142.866 394.415 144.006 393.876 145.167C393.773 145.374 393.566 145.498 393.358 145.498ZM396.778 138.701C396.695 138.701 396.591 138.68 396.508 138.639C396.239 138.494 396.115 138.142 396.28 137.872C396.902 136.712 397.503 135.593 398.104 134.515C398.249 134.246 398.601 134.142 398.871 134.287C399.14 134.432 399.244 134.784 399.099 135.054C398.498 136.111 397.897 137.23 397.275 138.39C397.171 138.598 396.985 138.701 396.778 138.701ZM400.487 132.07C400.384 132.07 400.28 132.049 400.197 131.987C399.928 131.821 399.845 131.469 399.99 131.199C400.694 130.018 401.358 128.92 401.959 127.925C402.124 127.656 402.477 127.573 402.746 127.739C403.015 127.904 403.098 128.257 402.933 128.526C402.332 129.5 401.668 130.598 400.964 131.78C400.881 131.966 400.694 132.07 400.487 132.07ZM404.507 125.604C404.404 125.604 404.3 125.583 404.197 125.5C403.927 125.335 403.865 124.982 404.031 124.713C405.357 122.703 406.186 121.542 406.186 121.542C406.373 121.294 406.725 121.231 406.974 121.418C407.222 121.604 407.284 121.957 407.098 122.205C407.098 122.226 406.269 123.345 404.963 125.335C404.88 125.5 404.694 125.604 404.507 125.604Z" fill="#11829A"/>
<path d="M501.948 133.065C501.761 133.065 501.575 132.961 501.45 132.795C501.284 132.526 501.367 132.173 501.637 132.008C502.673 131.365 503.315 131.075 503.336 131.054C503.626 130.909 503.958 131.034 504.103 131.324C504.248 131.614 504.124 131.946 503.833 132.091C503.833 132.091 503.212 132.381 502.238 132.982C502.155 133.044 502.051 133.065 501.948 133.065Z" fill="#11829A"/>
<path d="M486.219 317.688C485.929 317.688 485.68 317.46 485.659 317.17C485.535 315.926 485.411 314.683 485.307 313.44C485.286 313.129 485.514 312.859 485.825 312.818C486.136 312.797 486.405 313.025 486.447 313.336C486.55 314.559 486.675 315.802 486.799 317.045C486.841 317.356 486.613 317.646 486.281 317.667C486.26 317.688 486.24 317.688 486.219 317.688ZM485.556 310.269C485.266 310.269 485.017 310.041 484.996 309.751C484.893 308.507 484.81 307.264 484.727 306.021C484.706 305.71 484.934 305.44 485.266 305.42C485.576 305.399 485.846 305.627 485.867 305.958C485.95 307.202 486.032 308.425 486.136 309.668C486.157 309.979 485.929 310.248 485.618 310.29C485.577 310.269 485.576 310.269 485.556 310.269ZM485.058 302.809C484.768 302.809 484.499 302.581 484.499 302.27C484.437 301.026 484.375 299.783 484.312 298.54C484.292 298.229 484.54 297.959 484.851 297.939C485.162 297.918 485.431 298.167 485.452 298.477C485.514 299.721 485.576 300.943 485.639 302.208C485.659 302.518 485.411 302.788 485.1 302.809C485.079 302.809 485.058 302.809 485.058 302.809ZM484.727 295.348C484.416 295.348 484.167 295.099 484.167 294.789C484.126 293.545 484.084 292.281 484.064 291.058C484.064 290.748 484.312 290.478 484.623 290.478C484.913 290.499 485.203 290.727 485.203 291.038C485.224 292.281 485.266 293.504 485.307 294.768C485.307 295.079 485.058 295.348 484.727 295.348ZM484.54 287.888C484.229 287.888 483.981 287.639 483.981 287.328C483.96 286.064 483.96 284.821 483.96 283.598C483.96 283.287 484.209 283.039 484.52 283.018C484.83 283.018 485.079 283.267 485.079 283.577C485.079 284.821 485.079 286.064 485.1 287.308C485.121 287.639 484.872 287.888 484.54 287.888C484.54 287.888 484.561 287.888 484.54 287.888ZM484.54 280.427C484.229 280.427 483.96 280.158 483.981 279.847C484.002 278.583 484.002 277.34 484.043 276.117C484.043 275.806 484.292 275.578 484.623 275.557C484.934 275.557 485.183 275.827 485.183 276.138C485.162 277.36 485.141 278.604 485.121 279.868C485.1 280.179 484.851 280.427 484.54 280.427ZM484.685 272.967C484.685 272.967 484.665 272.967 484.685 272.967C484.354 272.967 484.105 272.698 484.126 272.387C484.167 271.123 484.209 269.879 484.25 268.657C484.271 268.346 484.52 268.076 484.851 268.118C485.162 268.139 485.411 268.387 485.39 268.719C485.349 269.942 485.307 271.185 485.266 272.449C485.245 272.718 484.996 272.967 484.685 272.967ZM484.976 265.486H484.955C484.644 265.465 484.395 265.196 484.416 264.885C484.478 263.621 484.54 262.378 484.623 261.155C484.644 260.844 484.934 260.595 485.224 260.616C485.535 260.637 485.784 260.906 485.763 261.217C485.68 262.44 485.618 263.683 485.556 264.947C485.535 265.258 485.286 265.486 484.976 265.486ZM485.431 258.046C485.411 258.046 485.411 258.046 485.39 258.046C485.079 258.026 484.83 257.756 484.872 257.445C484.955 256.181 485.058 254.938 485.162 253.715C485.183 253.404 485.473 253.176 485.784 253.197C486.095 253.218 486.323 253.487 486.302 253.819C486.198 255.042 486.115 256.285 486.012 257.528C485.991 257.818 485.722 258.046 485.431 258.046ZM486.032 250.586C486.012 250.586 485.991 250.586 485.97 250.586C485.659 250.565 485.431 250.275 485.452 249.964C485.577 248.7 485.68 247.457 485.804 246.234C485.846 245.923 486.115 245.695 486.426 245.716C486.737 245.757 486.965 246.027 486.944 246.338C486.82 247.56 486.696 248.783 486.592 250.047C486.571 250.358 486.323 250.586 486.032 250.586ZM486.778 243.167C486.758 243.167 486.737 243.167 486.716 243.167C486.405 243.126 486.177 242.856 486.219 242.545C486.364 241.281 486.509 240.038 486.654 238.836C486.696 238.525 486.986 238.297 487.297 238.339C487.607 238.38 487.835 238.649 487.794 238.981C487.649 240.183 487.504 241.426 487.359 242.69C487.317 242.939 487.069 243.167 486.778 243.167ZM487.69 235.748C487.67 235.748 487.649 235.748 487.607 235.748C487.297 235.707 487.069 235.417 487.11 235.106C487.276 233.842 487.442 232.598 487.607 231.396C487.649 231.085 487.939 230.857 488.25 230.92C488.561 230.961 488.768 231.251 488.726 231.562C488.561 232.764 488.395 233.987 488.229 235.251C488.208 235.541 487.96 235.748 487.69 235.748ZM488.726 228.35C488.706 228.35 488.664 228.35 488.644 228.35C488.333 228.309 488.125 228.018 488.167 227.708C488.353 226.423 488.561 225.2 488.747 224.019C488.789 223.708 489.099 223.501 489.41 223.542C489.721 223.584 489.928 223.894 489.887 224.205C489.7 225.387 489.493 226.609 489.307 227.894C489.244 228.143 489.017 228.35 488.726 228.35ZM489.949 220.973C489.908 220.973 489.887 220.973 489.845 220.973C489.535 220.91 489.327 220.62 489.39 220.309C489.618 219.004 489.845 217.781 490.053 216.621C490.115 216.31 490.405 216.103 490.716 216.165C491.027 216.227 491.234 216.517 491.172 216.828C490.965 217.988 490.737 219.211 490.509 220.496C490.446 220.786 490.218 220.973 489.949 220.973ZM491.338 213.636C491.296 213.636 491.255 213.637 491.234 213.616C490.923 213.554 490.716 213.243 490.778 212.953C491.047 211.564 491.317 210.342 491.545 209.285C491.607 208.974 491.918 208.787 492.229 208.849C492.539 208.912 492.726 209.222 492.664 209.533C492.436 210.59 492.166 211.813 491.897 213.181C491.835 213.45 491.586 213.636 491.338 213.636ZM492.933 206.321C492.892 206.321 492.85 206.321 492.809 206.3C492.498 206.218 492.312 205.927 492.394 205.617C492.519 205.119 492.602 204.767 492.643 204.56C492.291 203.897 491.939 203.254 491.586 202.591C491.441 202.322 491.545 201.969 491.835 201.824C492.125 201.679 492.457 201.783 492.602 202.073C492.975 202.778 493.348 203.503 493.741 204.207L493.845 204.415L493.783 204.643C493.783 204.643 493.679 205.078 493.472 205.886C493.431 206.155 493.182 206.321 492.933 206.321ZM490.426 199.565C490.218 199.565 490.011 199.441 489.908 199.234C489.369 198.115 488.83 196.954 488.333 195.815C488.208 195.524 488.333 195.193 488.623 195.068C488.913 194.944 489.244 195.068 489.369 195.359C489.866 196.478 490.384 197.617 490.923 198.737C491.068 199.027 490.944 199.358 490.654 199.503C490.592 199.545 490.509 199.565 490.426 199.565ZM487.421 192.727C487.193 192.727 486.986 192.582 486.882 192.374C486.426 191.193 485.991 190.012 485.576 188.852C485.473 188.561 485.639 188.23 485.929 188.126C486.219 188.023 486.55 188.188 486.654 188.479C487.048 189.618 487.483 190.8 487.939 191.96C488.063 192.25 487.918 192.582 487.607 192.706C487.566 192.727 487.504 192.727 487.421 192.727ZM484.996 185.681C484.748 185.681 484.52 185.515 484.457 185.266C484.105 184.044 483.774 182.821 483.483 181.64C483.401 181.329 483.608 181.018 483.898 180.956C484.188 180.873 484.52 181.08 484.582 181.37C484.872 182.552 485.183 183.754 485.535 184.956C485.618 185.266 485.452 185.577 485.141 185.66C485.1 185.66 485.058 185.681 484.996 185.681ZM483.276 178.407C483.007 178.407 482.758 178.221 482.717 177.93C482.489 176.687 482.302 175.423 482.178 174.2C482.136 173.889 482.364 173.599 482.675 173.579C482.986 173.558 483.276 173.765 483.297 174.076C483.442 175.278 483.608 176.5 483.836 177.744C483.898 178.055 483.691 178.345 483.38 178.407C483.338 178.407 483.318 178.407 483.276 178.407ZM482.447 170.988C482.136 170.988 481.888 170.739 481.888 170.449C481.846 169.703 481.846 168.937 481.846 168.17C481.846 167.672 481.846 167.154 481.867 166.678C481.867 166.367 482.136 166.118 482.427 166.118H482.447C482.758 166.118 483.007 166.388 483.007 166.698C482.986 167.175 482.986 167.672 482.986 168.17C482.986 168.895 483.007 169.641 483.028 170.387C483.048 170.698 482.8 170.967 482.489 170.988C482.468 170.988 482.447 170.988 482.447 170.988ZM482.675 163.548C482.655 163.548 482.634 163.548 482.613 163.548C482.302 163.507 482.074 163.238 482.116 162.927C482.261 161.663 482.447 160.419 482.696 159.197C482.758 158.886 483.069 158.699 483.359 158.741C483.67 158.803 483.877 159.093 483.815 159.404C483.587 160.585 483.38 161.808 483.256 163.051C483.214 163.321 482.965 163.548 482.675 163.548ZM484.147 156.233C484.084 156.233 484.043 156.233 483.981 156.212C483.67 156.13 483.504 155.798 483.587 155.508C483.939 154.306 484.354 153.104 484.83 151.923C484.955 151.633 485.286 151.488 485.576 151.612C485.867 151.736 486.012 152.068 485.887 152.358C485.431 153.498 485.038 154.658 484.685 155.839C484.623 156.067 484.395 156.233 484.147 156.233ZM486.903 149.312C486.82 149.312 486.737 149.291 486.633 149.249C486.364 149.104 486.24 148.773 486.385 148.483C486.965 147.364 487.587 146.265 488.271 145.208C488.436 144.939 488.789 144.856 489.058 145.043C489.327 145.208 489.41 145.561 489.224 145.83C488.561 146.866 487.96 147.944 487.4 149.021C487.317 149.187 487.11 149.312 486.903 149.312ZM490.923 143.012C490.799 143.012 490.674 142.97 490.571 142.887C490.322 142.701 490.281 142.328 490.467 142.079C491.234 141.084 492.063 140.111 492.913 139.199C493.12 138.971 493.493 138.95 493.721 139.178C493.949 139.385 493.969 139.758 493.741 139.986C492.913 140.877 492.104 141.831 491.358 142.784C491.255 142.95 491.089 143.012 490.923 143.012ZM496 137.541C495.855 137.541 495.689 137.479 495.586 137.354C495.379 137.126 495.399 136.753 495.627 136.546C496.56 135.696 497.555 134.888 498.549 134.142C498.798 133.956 499.15 133.997 499.337 134.246C499.523 134.495 499.482 134.847 499.233 135.033C498.259 135.759 497.306 136.546 496.394 137.375C496.27 137.499 496.125 137.541 496 137.541Z" fill="#11829A"/>
<path d="M486.861 323.283C486.571 323.283 486.322 323.076 486.302 322.786C486.219 322.164 486.157 321.522 486.074 320.9C486.032 320.589 486.26 320.299 486.571 320.278C486.882 320.237 487.172 320.465 487.193 320.776C487.255 321.397 487.338 322.04 487.421 322.661C487.462 322.972 487.234 323.262 486.923 323.304C486.903 323.283 486.882 323.283 486.861 323.283Z" fill="#11829A"/>
<path d="M416.527 188.81C416.444 188.395 408.155 147.322 419.532 117.149C419.677 116.755 420.112 116.548 420.506 116.714C420.9 116.859 421.107 117.294 420.941 117.688C411.429 142.949 415.905 176.086 417.522 185.743C422.599 175.547 445.56 145.768 455.424 133.707C462.615 124.899 463.672 119.014 463.279 115.595C462.864 112.03 460.875 110.476 460.792 110.414C460.46 110.165 460.398 109.689 460.647 109.357C460.895 109.025 461.372 108.963 461.704 109.212C461.807 109.295 464.253 111.181 464.771 115.367C465.434 120.755 462.678 127.241 456.606 134.681C439.447 155.653 417.853 185.245 418.04 188.603L416.527 188.81Z" fill="black"/>
<path d="M418.052 188.597L416.546 188.735L418.773 213.108L420.28 212.971L418.052 188.597Z" fill="black"/>
<path d="M439.074 234.07L409.295 238.007L405.71 236.101L403.451 217.077L435.737 211.212L438.556 212.414L439.074 234.07Z" fill="#ABDAF7"/>
<path d="M439.074 234.07L409.294 238.007L405.709 236.101L436.338 231.79L435.737 211.212L438.555 212.414L439.074 234.07Z" fill="#11829A"/>
<path d="M434.535 174.718V185.391C434.535 185.391 458.927 184.624 469.599 189.349V178.987C469.599 178.987 459.092 172.418 434.535 174.718Z" fill="#11829A"/>
<path d="M532.515 290.312C503.378 298.312 491.628 295.763 491.628 295.763C491.628 295.763 486.509 300.633 479.525 296.156C472.542 291.68 467.941 287.432 467.941 287.432C467.941 287.432 462.988 287.038 460.128 288.509C460.128 288.509 458.118 289.815 457.579 288.675C457.579 288.675 453.082 290.52 452.937 288.199C452.937 288.199 449.767 287.349 450.471 285.173C451.176 283.018 459.527 274.252 459.527 274.252C459.527 274.252 459.362 272.325 454.802 274.48C450.243 276.656 446.223 278.148 448.544 274.459C448.544 274.459 460.812 263.559 468.148 267.123C475.484 270.708 483.007 287.225 493.037 281.422C503.067 275.64 525.22 248.369 525.386 241.219C525.531 235.292 508.455 216.123 502.611 209.741C501.409 208.435 500.684 207.647 500.684 207.647C500.684 207.647 520.951 182.096 543.436 175.444C543.436 175.444 546.565 179.277 550.896 185.163C558.46 195.421 569.671 211.937 574.438 225.345C581.919 246.524 561.651 282.293 532.515 290.312Z" fill="#B76B78"/>
<path d="M550.875 185.204C529.779 188.665 509.45 204.125 502.57 209.761C501.368 208.456 500.642 207.668 500.642 207.668C500.642 207.668 520.91 182.117 543.394 175.464C543.415 175.485 546.544 179.298 550.875 185.204Z" fill="#A04A64"/>
<path d="M457.559 289.028C457.331 289.028 457.165 288.841 457.186 288.634C457.352 284.966 466.843 280.51 467.237 280.324C467.423 280.241 467.651 280.324 467.734 280.51C467.817 280.697 467.734 280.925 467.548 281.008C464.916 282.23 458.056 285.981 457.932 288.655C457.932 288.862 457.766 289.028 457.559 289.028Z" fill="#A4465F"/>
<path d="M452.917 288.572C452.896 288.572 452.855 288.572 452.834 288.551C452.627 288.509 452.502 288.302 452.565 288.095C454.45 280.407 466.138 275.433 466.636 275.226C466.822 275.143 467.05 275.247 467.133 275.433C467.216 275.62 467.133 275.848 466.926 275.93C466.801 275.972 455.072 280.987 453.29 288.282C453.248 288.447 453.103 288.572 452.917 288.572Z" fill="#A4465F"/>
<path d="M459.507 274.625C459.444 274.625 459.382 274.604 459.32 274.563C459.134 274.459 459.071 274.231 459.196 274.045C460.895 271.185 464.687 270.149 467.423 270.149C467.63 270.149 467.796 270.314 467.796 270.522C467.796 270.729 467.63 270.895 467.423 270.895C464.895 270.915 461.392 271.848 459.859 274.418C459.755 274.563 459.631 274.625 459.507 274.625Z" fill="#A4465F"/>
<path d="M418.558 58.5024C417.977 58.5024 417.439 58.1708 417.169 57.6113C417.148 57.5491 415.574 54.2127 412.672 54.3784C411.823 54.4199 411.118 53.7775 411.077 52.9485C411.035 52.1196 411.678 51.3943 412.506 51.3529C417.48 51.0627 419.843 56.1399 419.946 56.3679C420.298 57.1346 419.946 58.0257 419.179 58.378C418.993 58.4609 418.786 58.5024 418.558 58.5024Z" fill="black"/>
<path d="M424.837 58.4816C424.568 58.4816 424.298 58.4194 424.05 58.2536C423.345 57.8184 423.117 56.9066 423.531 56.202C423.656 55.9741 424.878 54.0261 427.925 53.4251C430.639 52.8863 433.934 53.3837 434.08 53.4044C434.908 53.5287 435.468 54.3162 435.344 55.1451C435.219 55.9741 434.432 56.5336 433.603 56.4093C433.582 56.4093 430.681 55.9533 428.526 56.3885C426.806 56.7408 426.143 57.7148 426.122 57.7563C425.832 58.2329 425.334 58.4816 424.837 58.4816Z" fill="black"/>
<path d="M413.17 81.0492C411.698 81.0492 410.807 80.6969 410.413 80.013C409.626 78.5831 411.346 75.9513 415.656 71.9517C419.884 68.035 418.019 61.3829 417.998 61.3207C417.936 61.1135 418.06 60.9062 418.267 60.8441C418.475 60.7819 418.682 60.9062 418.744 61.0927C418.827 61.3829 420.754 68.263 416.195 72.4905C410.807 77.4848 410.828 79.1427 411.097 79.6193C411.408 80.1995 412.9 80.9041 419.407 79.1841C419.614 79.1219 419.822 79.2463 419.863 79.4535C419.925 79.6607 419.801 79.868 419.594 79.9094C416.817 80.6762 414.682 81.0492 413.17 81.0492Z" fill="#A4465F"/>
<path d="M413.149 84.5928C413.149 84.5928 424.505 86.603 429.52 84.5928C429.52 84.5928 428.526 91.7216 420.837 91.2657C413.149 90.8305 413.149 84.5928 413.149 84.5928Z" fill="white"/>
<path d="M428.007 67.2268C429.14 67.2268 430.059 66.067 430.059 64.6364C430.059 63.2057 429.14 62.046 428.007 62.046C426.874 62.046 425.956 63.2057 425.956 64.6364C425.956 66.067 426.874 67.2268 428.007 67.2268Z" fill="#0A0134"/>
<path d="M413.729 66.3976C414.725 66.3976 415.532 65.2378 415.532 63.8072C415.532 62.3766 414.725 61.2168 413.729 61.2168C412.733 61.2168 411.926 62.3766 411.926 63.8072C411.926 65.2378 412.733 66.3976 413.729 66.3976Z" fill="#0A0134"/>
<path d="M246.203 2.46678C223.676 12.4554 239.696 27.5004 239.716 27.5212C239.198 27.0238 236.732 27.4797 236.131 27.5833C233.251 28.06 231.841 29.9043 231.821 32.7641C231.821 34.2976 232.111 36.2249 233.147 37.4476C233.147 37.4476 229.541 40.1001 234.1 46.6487C238.659 53.2179 286.281 60.5125 286.281 60.5125L290.509 50.9798C290.509 50.9798 295.068 45.9027 290.094 40.3903C290.094 40.3903 293.576 36.5772 292.415 33.0957C291.255 29.5935 287.981 29.3862 287.981 29.3862C287.981 29.3862 274.511 -10.0915 246.203 2.46678Z" fill="#0F004F"/>
<path d="M283.525 67.4962C283.525 67.4962 278.759 94.913 283.629 103.803L247.654 129.314L248.669 105.565L249.021 97.2548C249.021 97.2548 231.883 93.1308 230.184 82.334C228.485 71.5372 234.847 52.9071 236.649 43.706C238.452 34.4841 239.178 28.8889 239.178 28.8889H240.442C240.442 28.8889 261.289 34.1733 273.475 31.1062C273.475 31.1062 274.221 34.7121 272.625 35.769C271.029 36.8258 278.22 35.769 278.22 35.769C278.22 35.769 282.033 42.5455 277.599 48.2651C276.438 49.6328 281.204 49.1147 281.204 49.1147C281.204 49.1147 281.826 57.1553 280.769 58.9582C279.712 60.7612 282.137 59.0619 283.09 56.43C284.043 53.7774 287.96 51.0213 291.462 52.7206C294.944 54.3784 292.851 66.3357 283.525 67.4962Z" fill="#FEB7C5"/>
<path d="M280.873 69.983C280.707 71.2057 276.314 103.119 248.669 105.565L249.021 97.2548C249.021 97.2341 274.925 97.3584 280.873 69.983Z" fill="#FEA0AE"/>
<path d="M242.161 73.879C240.918 73.879 239.654 73.7547 238.452 73.278C238.079 73.133 237.644 72.9257 237.354 72.532C236.981 72.0346 236.898 71.3508 237.105 70.7083C237.457 69.61 238.39 69.0919 239.198 68.6153C239.509 68.4288 239.82 68.263 240.068 68.0765C240.835 67.4755 241.519 66.7295 242.12 65.8798C243.156 64.4292 243.944 62.6056 244.482 60.4711C245.063 58.1501 245.332 55.7255 245.228 53.4666C245.208 53.0522 245.539 52.6999 245.954 52.6791C246.368 52.6584 246.721 52.99 246.741 53.4045C246.845 55.8291 246.575 58.3988 245.954 60.8441C245.373 63.1651 244.503 65.1545 243.363 66.7502C242.679 67.7242 241.871 68.5739 241.001 69.2577C240.669 69.5271 240.296 69.7344 239.944 69.9209C239.281 70.2939 238.721 70.6047 238.556 71.1643C238.493 71.33 238.514 71.5166 238.576 71.6202C238.659 71.7238 238.908 71.8274 239.011 71.8689C240.731 72.532 242.721 72.3869 244.669 72.2419C245.104 72.2004 245.539 72.1797 245.974 72.159C246.389 72.1383 246.741 72.4491 246.783 72.8843C246.803 73.2987 246.493 73.651 246.057 73.6925C245.643 73.7132 245.208 73.7547 244.773 73.7754C243.902 73.8168 243.032 73.879 242.161 73.879Z" fill="#FEA0AE"/>
<path d="M246.389 82.8315C244.047 82.8315 242.369 82.1062 241.457 81.6088C241.042 81.3808 240.939 80.842 241.229 80.469C241.457 80.1789 241.871 80.096 242.182 80.2825C243.84 81.2151 249.207 83.2874 257.041 76.3451C257.352 76.0757 257.828 76.0757 258.098 76.3865C258.388 76.6974 258.367 77.1947 258.056 77.4641C253.331 81.671 249.332 82.8315 246.389 82.8315Z" fill="#FEA0AE"/>
<path d="M264.77 48.1615C264.522 48.1615 264.294 48.0372 264.149 47.8299C261.206 43.4366 257.124 45.9234 256.958 46.0477C256.606 46.2757 256.129 46.1721 255.901 45.8198C255.673 45.4675 255.777 44.9909 256.129 44.7836C256.191 44.7422 261.621 41.385 265.392 47.0217C265.62 47.374 265.537 47.8507 265.185 48.0786C265.061 48.1201 264.916 48.1615 264.77 48.1615Z" fill="black"/>
<path d="M243.737 47.6227C243.447 47.6227 243.177 47.4569 243.053 47.1668C241.499 43.706 239.095 43.706 239.012 43.706C238.577 43.706 238.245 43.3744 238.245 42.96C238.245 42.5455 238.556 42.1932 238.971 42.1725C239.116 42.1725 242.473 42.1103 244.462 46.5451C244.628 46.9181 244.462 47.374 244.089 47.5398C243.944 47.602 243.841 47.6227 243.737 47.6227Z" fill="black"/>
<path d="M258.927 60.5333C260.254 60.5333 261.33 59.4571 261.33 58.1294C261.33 56.8018 260.254 55.7255 258.927 55.7255C257.599 55.7255 256.523 56.8018 256.523 58.1294C256.523 59.4571 257.599 60.5333 258.927 60.5333Z" fill="black"/>
<path d="M240.131 57.6735C241.195 57.6735 242.058 56.5972 242.058 55.2696C242.058 53.942 241.195 52.8657 240.131 52.8657C239.067 52.8657 238.204 53.942 238.204 55.2696C238.204 56.5972 239.067 57.6735 240.131 57.6735Z" fill="black"/>
<path d="M284.935 58.8962L284.251 58.5439C285.183 56.7202 287.753 53.6118 290.758 54.938L290.447 55.6426C287.339 54.2542 284.955 58.834 284.935 58.8962Z" fill="black"/>
<path d="M248.669 98.7054L246.431 98.0837L238.908 105.565L238.287 107.906C238.287 107.906 200.736 125.666 183.805 150.762C166.874 175.858 121.242 276.801 194.084 273.775L189.856 322.744H340.369C340.369 322.744 331.914 262.605 334.318 255.642C336.722 248.679 350.938 181.598 342.172 156.192C333.406 130.785 292.644 105.565 292.644 105.565C292.644 105.565 288.416 92.965 281.93 98.0837L282.655 101.42L247.902 123.014L248.669 98.7054Z" fill="white"/>
<path d="M213.004 202.984C213.004 202.984 213.004 199.69 210.227 197.928C207.451 196.167 197.566 194.177 196.177 198.881C194.789 203.585 195.555 217.594 196.944 220.247C198.332 222.9 205.13 223.19 206.352 221.511C207.596 219.812 213.004 202.984 213.004 202.984Z" fill="#FDB9C4"/>
<path d="M254.927 135.261L247.363 125.272L236.546 131.282L237.457 110.953C237.478 110.538 237.83 110.207 238.245 110.227C238.659 110.248 238.991 110.6 238.97 111.015L238.183 128.63L247.778 123.304L255.238 133.147L290.882 106.974C291.214 106.725 291.69 106.808 291.939 107.14C292.187 107.471 292.105 107.948 291.773 108.196L254.927 135.261Z" fill="#79A1BC"/>
<path d="M238.245 209.865C235.509 195.98 246.265 130.909 246.721 128.132L247.467 128.257C247.363 128.941 236.276 195.959 238.991 209.72L238.245 209.865Z" fill="#79A1BC"/>
<path d="M231.51 321.708C231.22 321.708 230.951 321.542 230.826 321.273C228.257 315.636 232.629 274.935 232.816 273.195C232.857 272.78 233.23 272.469 233.645 272.532C234.059 272.573 234.37 272.946 234.308 273.361C233.044 285.028 230.184 316.278 232.173 320.63C232.339 321.003 232.173 321.459 231.8 321.646C231.738 321.687 231.614 321.708 231.51 321.708Z" fill="#79A1BC"/>
<path d="M335.333 205.658C335.333 205.658 333.261 246.69 293.161 275.558C253.062 304.446 198.954 233.158 198.954 233.158C198.954 233.158 207.885 202.218 213.17 199.006C213.17 199.006 217.107 197.763 225.003 203.234C232.898 208.704 248.296 219.771 248.296 219.771" fill="white"/>
<path d="M272.065 283.142C259.631 283.142 245.602 277.34 230.557 265.797C212.154 251.684 198.498 233.8 198.353 233.614L198.125 233.303L198.228 232.93C199.161 229.738 207.409 201.617 212.776 198.343L212.942 198.26C213.108 198.198 217.314 196.975 225.438 202.591C233.271 208 248.586 219.025 248.752 219.128L247.86 220.351C247.715 220.247 232.38 209.222 224.568 203.814C217.75 199.11 214.04 199.565 213.46 199.669C209.377 202.425 202.332 224.226 199.783 232.951C201.648 235.354 214.538 251.581 231.489 264.553C255.777 283.163 276.376 286.644 292.706 274.894C332.038 246.586 334.546 205.969 334.566 205.575L336.079 205.658C336.059 206.073 333.53 247.374 293.597 276.138C287.152 280.842 279.919 283.142 272.065 283.142Z" fill="#79A1BC"/>
<path d="M277.349 198.695C277.246 198.695 277.122 198.674 277.018 198.612C276.645 198.425 276.479 197.97 276.666 197.597C276.769 197.389 286.716 177.122 290.612 165.123C294.55 152.979 304.31 139.012 317.242 135.157C317.635 135.033 318.071 135.261 318.195 135.676C318.319 136.069 318.091 136.504 317.677 136.629C305.284 140.318 295.897 153.85 292.063 165.6C288.126 177.702 278.137 198.073 278.033 198.28C277.888 198.55 277.619 198.695 277.349 198.695Z" fill="#79A1BC"/>
<path d="M194.104 274.128L194.021 273.382C194.208 273.361 213.584 271.164 224.277 261.03L224.795 261.59C213.916 271.889 194.312 274.107 194.104 274.128Z" fill="#79A1BC"/>
<path d="M288.25 304.549C273.018 304.549 264.025 297.814 263.88 297.71C263.548 297.462 263.486 296.985 263.734 296.654C263.983 296.322 264.46 296.26 264.791 296.509C264.978 296.654 284.478 311.181 314.817 296.426C315.19 296.239 315.646 296.405 315.833 296.778C316.019 297.151 315.853 297.607 315.48 297.793C305.077 302.871 295.897 304.549 288.25 304.549Z" fill="#79A1BC"/>
<path d="M255.902 176.956L254.389 176.749C255.052 171.755 264.025 160.73 274.407 147.944C283.546 136.712 292.996 125.086 296.706 117.46C299.234 112.258 299.69 108.197 298.073 105.378C296.042 101.855 291.297 101.441 291.255 101.441L291.359 99.928C291.587 99.9487 296.934 100.384 299.379 104.611C301.265 107.886 300.83 112.445 298.053 118.123C294.26 125.894 284.769 137.603 275.568 148.897C266.222 160.44 256.523 172.376 255.902 176.956Z" fill="#074772"/>
<path d="M258.48 183.137C261.09 178.844 260.97 174.004 258.212 172.327C255.454 170.651 251.102 172.772 248.492 177.065C245.882 181.359 246.002 186.198 248.76 187.875C251.518 189.552 255.869 187.431 258.48 183.137Z" fill="#5C93E1"/>
<path d="M250.887 189.203C249.291 189.203 247.923 188.52 247.032 187.297C245.706 185.515 245.478 182.8 246.39 179.878C247.944 174.904 252.192 170.988 256.067 170.988C257.663 170.988 259.031 171.672 259.922 172.894C261.248 174.677 261.476 177.391 260.564 180.313C259.031 185.308 254.762 189.203 250.887 189.203ZM256.067 172.521C252.855 172.521 249.167 176.024 247.84 180.334C247.094 182.759 247.239 185.038 248.255 186.406C248.877 187.256 249.788 187.691 250.887 187.691C254.099 187.691 257.788 184.188 259.114 179.878C259.86 177.453 259.715 175.174 258.699 173.806C258.078 172.956 257.166 172.521 256.067 172.521Z" fill="#074772"/>
<path d="M208.963 186.054C206.953 174.076 206.456 157.58 215.47 146.949C220.05 141.54 225.231 139.841 226.91 139.406C227.946 132.091 236.318 116.009 236.691 115.326L238.038 116.03C237.955 116.196 229.003 133.375 228.36 140.11L228.298 140.691L227.738 140.794C227.676 140.815 221.667 141.976 216.569 148.027C209.771 156.088 207.678 169.164 210.476 185.805L208.963 186.054Z" fill="#074772"/>
<path d="M228.588 188.81L227.303 188.002C227.51 187.67 248.192 154.182 227.199 140.67L228.028 139.385C250.264 153.726 228.816 188.479 228.588 188.81Z" fill="#074772"/>
<path d="M236.691 161.041C233.935 155.528 230.391 152.316 226.143 151.467C218.89 150.037 211.885 156.026 211.803 156.088L210.808 154.948C211.119 154.679 218.434 148.42 226.433 149.995C231.158 150.928 235.075 154.43 238.059 160.378L236.691 161.041Z" fill="#074772"/>
<path d="M210.206 188.085C209.025 188.085 207.885 187.111 207.678 185.929L207.16 182.945C206.953 181.764 207.74 180.79 208.942 180.79C210.124 180.79 211.263 181.764 211.471 182.945L211.989 185.929C212.196 187.131 211.388 188.085 210.206 188.085Z" fill="#5C93E1"/>
<path d="M210.207 188.851C208.632 188.851 207.202 187.629 206.932 186.075L206.414 183.09C206.269 182.303 206.476 181.515 206.953 180.935C207.43 180.355 208.134 180.044 208.942 180.044C210.517 180.044 211.947 181.267 212.217 182.821L212.735 185.805C212.88 186.593 212.673 187.38 212.196 187.96C211.699 188.541 210.994 188.851 210.207 188.851ZM208.922 181.557C208.59 181.557 208.3 181.681 208.093 181.909C207.906 182.137 207.823 182.469 207.886 182.821L208.404 185.805C208.549 186.634 209.378 187.339 210.186 187.339C210.517 187.339 210.828 187.214 211.015 186.986C211.201 186.758 211.284 186.427 211.222 186.075L210.704 183.09C210.559 182.262 209.751 181.557 208.922 181.557Z" fill="#074772"/>
<path d="M226.516 190.136C225.646 189.328 225.459 187.856 226.122 186.841L227.759 184.292C228.402 183.276 229.645 183.111 230.516 183.919C231.386 184.727 231.572 186.198 230.909 187.214L229.272 189.763C228.63 190.778 227.407 190.944 226.516 190.136Z" fill="#5C93E1"/>
<path d="M227.759 191.421C227.117 191.421 226.516 191.172 226.018 190.716C224.879 189.659 224.63 187.774 225.5 186.447L227.138 183.898C227.573 183.214 228.257 182.779 229.003 182.676C229.749 182.572 230.474 182.821 231.075 183.36C232.215 184.416 232.463 186.302 231.593 187.628L229.956 190.177C229.521 190.861 228.837 191.297 228.091 191.4C227.966 191.4 227.863 191.421 227.759 191.421ZM227.034 189.597C227.283 189.825 227.593 189.929 227.863 189.887C228.174 189.846 228.443 189.659 228.63 189.349L230.267 186.8C230.723 186.095 230.598 185.017 229.997 184.458C229.749 184.23 229.459 184.126 229.168 184.168C228.858 184.209 228.588 184.396 228.402 184.707L226.765 187.255C226.309 187.96 226.433 189.038 227.034 189.597Z" fill="#074772"/>
<path d="M275.878 200.436C266.76 199.876 249.353 216.911 249.56 221.345C249.56 221.345 255.777 229.262 266.076 221.345C266.076 221.345 272.563 226.008 279.215 224.868C279.215 224.868 283.96 227.044 283.484 223.874C283.484 223.874 285.017 223.045 284.665 221.014C284.313 218.983 281.142 208.704 276.127 207.109C276.127 207.109 276.997 205.886 279.919 206.673C282.821 207.461 288.81 210.797 291.089 210.466C291.068 210.466 287.152 201.12 275.878 200.436Z" fill="#FEB7C5"/>
<path d="M283.111 223.977C281.018 216.061 272.459 209.513 272.376 209.45L272.832 208.849C273.184 209.119 281.681 215.605 283.836 223.791L283.111 223.977Z" fill="#FEA0AE"/>
<path d="M278.863 225.034C277.598 222.465 269.641 216.02 269.558 215.957L270.034 215.377C270.366 215.647 278.199 221.988 279.546 224.703L278.863 225.034Z" fill="#FEA0AE"/>
<path d="M198.974 194.84C198.933 194.84 198.912 194.84 198.871 194.84C198.456 194.778 198.166 194.405 198.208 193.991C198.332 192.955 201.461 168.48 204.818 159.424C204.963 159.031 205.399 158.823 205.792 158.968C206.186 159.114 206.393 159.549 206.248 159.942C202.932 168.833 199.741 193.929 199.72 194.177C199.679 194.571 199.347 194.84 198.974 194.84Z" fill="#79A1BC"/>
<path d="M255.788 181.501C256.989 179.525 256.932 177.297 255.66 176.524C254.389 175.751 252.385 176.726 251.184 178.702C249.983 180.677 250.04 182.905 251.311 183.678C252.582 184.451 254.587 183.476 255.788 181.501Z" fill="white"/>
<path d="M252.275 184.707C251.404 184.707 250.658 184.334 250.161 183.671C249.477 182.738 249.353 181.37 249.809 179.899C250.575 177.454 252.689 175.526 254.658 175.526C255.528 175.526 256.274 175.899 256.772 176.563C257.455 177.495 257.58 178.863 257.124 180.334C256.357 182.78 254.243 184.707 252.275 184.707ZM254.658 177.019C253.373 177.019 251.819 178.531 251.259 180.314C250.948 181.308 250.99 182.22 251.384 182.738C251.591 183.028 251.881 183.173 252.275 183.173C253.56 183.173 255.114 181.66 255.673 179.878C255.984 178.884 255.943 177.972 255.549 177.454C255.342 177.164 255.031 177.019 254.658 177.019Z" fill="#092A7C"/>
<path d="M234.991 65.9419C229.749 65.9419 225.5 61.1548 225.5 55.2902C225.5 49.4048 229.749 44.6384 234.991 44.6384C240.234 44.6384 244.483 49.4255 244.483 55.2902C244.483 61.1548 240.234 65.9419 234.991 65.9419ZM234.991 46.1512C230.598 46.1512 227.013 50.2544 227.013 55.2902C227.013 60.3259 230.598 64.4291 234.991 64.4291C239.385 64.4291 242.97 60.3259 242.97 55.2902C242.97 50.2544 239.385 46.1512 234.991 46.1512Z" fill="#0F004F"/>
<path d="M258.554 70.7291C252.668 70.7291 247.902 65.942 247.902 60.0773C247.902 54.1919 252.689 49.4256 258.554 49.4256C264.419 49.4256 269.206 54.2127 269.206 60.0773C269.206 65.9627 264.439 70.7291 258.554 70.7291ZM258.554 50.9384C253.518 50.9384 249.415 55.0416 249.415 60.0773C249.415 65.1131 253.518 69.2163 258.554 69.2163C263.59 69.2163 267.693 65.1131 267.693 60.0773C267.693 55.0416 263.59 50.9384 258.554 50.9384Z" fill="#0F004F"/>
<path d="M248.669 57.1346C246.659 54.6271 244.358 55.8083 244.089 55.9326L243.343 54.6063C244.586 53.9017 247.55 53.3008 249.85 56.1606L248.669 57.1346Z" fill="#0F004F"/>
<path d="M284.365 53.4302L268.222 58.394L268.667 59.8399L284.81 54.8761L284.365 53.4302Z" fill="#0F004F"/>
</svg>
