<svg width="84" height="84" viewBox="0 0 84 84" fill="none" xmlns="http://www.w3.org/2000/svg">
<g filter="url(#filter0_d_5_11477)">
<rect x="12" y="2" width="60" height="60" rx="15" fill="url(#paint0_linear_5_11477)"/>
</g>
<path d="M42 32.2857C47.05 32.2857 51.1429 28.1929 51.1429 23.1429C51.1429 18.0929 47.05 14 42 14C36.95 14 32.8571 18.0929 32.8571 23.1429C32.8571 28.1929 36.95 32.2857 42 32.2857ZM33.4286 44.2857C33.4286 45.2357 34.1929 46 35.1429 46C36.0929 46 36.8571 45.2357 36.8571 44.2857C36.8571 43.3357 36.0929 42.5714 35.1429 42.5714C34.1929 42.5714 33.4286 43.3357 33.4286 44.2857ZM48.8571 34.6143V38.1143C51.4643 38.6429 53.4286 40.9571 53.4286 43.7143V46.6929C53.4286 47.2357 53.0429 47.7071 52.5071 47.8143L50.2071 48.2714C49.9 48.3357 49.6 48.1357 49.5357 47.8214L49.3143 46.7C49.25 46.3929 49.45 46.0857 49.7643 46.0286L51.1429 45.75V43.7143C51.1429 39.2286 44.2857 39.0643 44.2857 43.85V45.7571L45.6643 46.0357C45.9714 46.1 46.1714 46.4 46.1143 46.7071L45.8929 47.8286C45.8286 48.1357 45.5286 48.3357 45.2214 48.2786L42.9929 47.9786C42.4286 47.9 42.0071 47.4214 42.0071 46.8429V43.7143C42.0071 40.9571 43.9714 38.65 46.5786 38.1143V34.8857C46.4214 34.9357 46.2643 34.9643 46.1071 35.0214C44.8214 35.4714 43.4429 35.7214 42.0071 35.7214C40.5714 35.7214 39.1929 35.4714 37.9071 35.0214C37.3786 34.8357 36.8429 34.7214 36.2929 34.65V40.4786C37.9429 40.9714 39.15 42.4857 39.15 44.2929C39.15 46.5 37.3571 48.2929 35.15 48.2929C32.9429 48.2929 31.15 46.5 31.15 44.2929C31.15 42.4857 32.3571 40.9714 34.0071 40.4786V34.7357C29.4643 35.5 26 39.4143 26 44.1714V47.3714C26 49.1357 27.4357 50.5714 29.2 50.5714H54.8C56.5643 50.5714 58 49.1357 58 47.3714V44.1714C58 39.0286 53.9429 34.8643 48.8571 34.6143V34.6143Z" fill="#62D9A3"/>
<defs>
<filter id="filter0_d_5_11477" x="0" y="0" width="84" height="84" filterUnits="userSpaceOnUse" color-interpolation-filters="sRGB">
<feFlood flood-opacity="0" result="BackgroundImageFix"/>
<feColorMatrix in="SourceAlpha" type="matrix" values="0 0 0 0 0 0 0 0 0 0 0 0 0 0 0 0 0 0 127 0" result="hardAlpha"/>
<feOffset dy="10"/>
<feGaussianBlur stdDeviation="6"/>
<feComposite in2="hardAlpha" operator="out"/>
<feColorMatrix type="matrix" values="0 0 0 0 0.384314 0 0 0 0 0.85098 0 0 0 0 0.639216 0 0 0 0.33 0"/>
<feBlend mode="normal" in2="BackgroundImageFix" result="effect1_dropShadow_5_11477"/>
<feBlend mode="normal" in="SourceGraphic" in2="effect1_dropShadow_5_11477" result="shape"/>
</filter>
<linearGradient id="paint0_linear_5_11477" x1="67" y1="9" x2="20" y2="55" gradientUnits="userSpaceOnUse">
<stop stop-color="#DAFFF5"/>
<stop offset="1" stop-color="#CDFDF0"/>
</linearGradient>
</defs>
</svg>
